<svg width="88" height="88" viewBox="0 0 88 88" fill="none" xmlns="http://www.w3.org/2000/svg">
<path fill-rule="evenodd" clip-rule="evenodd" d="M82.7996 82.4001C80.2996 82.4001 78.1996 80.3001 78.1996 77.8001V70.7001C70.0996 81.1001 57.4996 87.4001 43.9996 87.4001C22.1996 87.4001 3.69961 71.1001 0.999609 49.4001L0.699609 47.2001H9.89961L10.0996 48.9001C12.5996 65.6001 27.0996 78.2001 43.9996 78.2001C55.9996 78.2001 67.1996 71.7001 73.3996 61.5001H61.8996C59.3996 61.5001 57.2996 59.4001 57.2996 56.9001C57.2996 54.4001 59.3996 52.3001 61.8996 52.3001H82.8996C85.0996 52.3001 87.3996 53.7001 87.3996 56.9001V77.8001C87.3996 80.3001 85.2996 82.4001 82.7996 82.4001ZM78.0996 40.8001L77.8996 39.1001C75.3996 22.4001 60.8996 9.8001 43.9996 9.8001C31.9996 9.8001 20.7996 16.3001 14.5996 26.5001H25.9996C28.4996 26.5001 30.5996 28.6001 30.5996 31.1001C30.5996 33.6001 28.4996 35.7001 25.9996 35.7001H5.19961C3.29961 35.6001 0.599609 34.4001 0.599609 31.1001V10.2001C0.599609 7.7001 2.69961 5.6001 5.19961 5.6001C7.69961 5.6001 9.79961 7.7001 9.79961 10.2001V17.3001C17.8996 6.9001 30.4996 0.600098 43.9996 0.600098C65.7996 0.600098 84.2996 16.9001 86.9996 38.6001L87.2996 40.8001H78.0996V40.8001Z" fill="#8257E5"/>
</svg>
