<svg width="76" height="76" viewBox="0 0 76 76" fill="none" xmlns="http://www.w3.org/2000/svg">
<path d="M38.0801 0.5C30.6633 0.5 23.4131 2.69934 17.2462 6.81989C11.0794 10.9404 6.2729 16.7971 3.43461 23.6494C0.596326 30.5016 -0.146299 38.0416 1.30065 45.3159C2.74759 52.5902 6.31912 59.272 11.5636 64.5165C16.8081 69.761 23.4899 73.3325 30.7642 74.7794C38.0385 76.2264 45.5785 75.4838 52.4307 72.6455C59.283 69.8072 65.1396 65.0007 69.2602 58.8339C73.3808 52.667 75.5801 45.4168 75.5801 38C75.5695 28.0576 71.6152 18.5255 64.5849 11.4952C57.5546 4.46487 48.0225 0.510588 38.0801 0.5V0.5ZM38.0801 70.5C31.6522 70.5 25.3687 68.5939 20.0241 65.0228C14.6795 61.4516 10.5139 56.3758 8.05401 50.4372C5.59416 44.4986 4.95055 37.9639 6.20457 31.6596C7.45859 25.3552 10.5539 19.5642 15.0991 15.019C19.6443 10.4738 25.4353 7.3785 31.7397 6.12448C38.044 4.87046 44.5787 5.51407 50.5173 7.97392C56.4559 10.4338 61.5317 14.5994 65.1029 19.944C68.674 25.2886 70.5801 31.5721 70.5801 38C70.5695 46.6163 67.142 54.8766 61.0494 60.9693C54.9567 67.0619 46.6964 70.4894 38.0801 70.5V70.5Z" fill="#8257E5"/>
<path d="M38.0804 17.6399C34.6643 17.6425 31.3888 19.0001 28.9723 21.4147C26.5558 23.8293 25.1957 27.1038 25.1904 30.5199C25.1904 31.1829 25.4538 31.8188 25.9227 32.2877C26.3915 32.7565 27.0274 33.0199 27.6904 33.0199C28.3535 33.0199 28.9894 32.7565 29.4582 32.2877C29.927 31.8188 30.1904 31.1829 30.1904 30.5199C30.1904 28.9594 30.6532 27.4339 31.5201 26.1364C32.3871 24.8389 33.6193 23.8277 35.0611 23.2305C36.5028 22.6333 38.0892 22.4771 39.6197 22.7815C41.1502 23.0859 42.5561 23.8374 43.6595 24.9408C44.7629 26.0443 45.5144 27.4501 45.8188 28.9806C46.1233 30.5111 45.967 32.0976 45.3698 33.5393C44.7727 34.981 43.7614 36.2132 42.4639 37.0802C41.1664 37.9472 39.6409 38.4099 38.0804 38.4099C37.4174 38.4099 36.7815 38.6733 36.3127 39.1421C35.8438 39.611 35.5804 40.2469 35.5804 40.9099V45.3499C35.5804 46.0129 35.8438 46.6488 36.3127 47.1177C36.7815 47.5865 37.4174 47.8499 38.0804 47.8499C38.7435 47.8499 39.3794 47.5865 39.8482 47.1177C40.317 46.6488 40.5804 46.0129 40.5804 45.3499V43.1699C43.7151 42.5434 46.5051 40.7745 48.4089 38.2066C50.3127 35.6387 51.1944 32.4551 50.8828 29.2736C50.5713 26.0922 49.0888 23.1401 46.723 20.9903C44.3572 18.8405 41.2771 17.6464 38.0804 17.6399V17.6399Z" fill="#8257E5"/>
<path d="M40.3901 54.91C40.3294 54.7587 40.2523 54.6145 40.1601 54.48C40.0704 54.3428 39.9665 54.2154 39.8501 54.1C39.559 53.8083 39.2005 53.5928 38.8064 53.4724C38.4122 53.3521 37.9945 53.3307 37.5901 53.41C37.2695 53.4809 36.9645 53.6097 36.6901 53.79C36.5543 53.8817 36.4272 53.9854 36.3101 54.1C36.1937 54.2154 36.0898 54.3428 36.0001 54.48C35.9079 54.6145 35.8307 54.7587 35.7701 54.91C35.7098 55.0589 35.6629 55.2128 35.6301 55.37C35.5991 55.5316 35.5824 55.6955 35.5801 55.86C35.5814 56.0246 35.5981 56.1886 35.6301 56.35C35.6615 56.5108 35.7084 56.6682 35.7701 56.82C35.8307 56.9714 35.9079 57.1156 36.0001 57.25C36.0898 57.3872 36.1937 57.5146 36.3101 57.63C36.7804 58.0977 37.4168 58.3601 38.0801 58.36C38.2428 58.3801 38.4074 58.3801 38.5701 58.36C38.7305 58.3272 38.8878 58.2804 39.0401 58.22C39.1904 58.1573 39.3344 58.0802 39.4701 57.99C39.6058 57.8983 39.733 57.7946 39.8501 57.68C39.9665 57.5646 40.0704 57.4372 40.1601 57.3C40.2523 57.1656 40.3294 57.0214 40.3901 56.87C40.4518 56.7182 40.4987 56.5608 40.5301 56.4C40.5453 56.237 40.5453 56.073 40.5301 55.91C40.5443 55.747 40.5443 55.583 40.5301 55.42C40.5003 55.2458 40.4534 55.075 40.3901 54.91V54.91Z" fill="#8257E5"/>
</svg>
